<svg xmlns="http://www.w3.org/2000/svg" viewBox="0 0 940 350">
  <style>
    :root { color-scheme: light dark; }
    rect.key { fill: #ffffff; stroke: #cbd5e1; stroke-width: 1.5px; }
    rect.gap { fill: #f1f5f9; stroke: #cbd5e1; stroke-dasharray: 4 4; }
    rect.active { fill: #f5f3ff; stroke: #7c3aed; stroke-width: 2px; }
    text { font-family: system-ui, -apple-system, sans-serif; text-anchor: middle; }
    text.title { font-size: 19px; font-weight: 800; fill: #0f172a; }
    text.subtitle { font-size: 13px; font-weight: 500; fill: #64748b; }
    text.phys { font-size: 9px; font-weight: 700; fill: #94a3b8; text-anchor: start; }
    text.main { font-size: 16px; font-weight: 800; fill: #7c3aed; }
    text.sub { font-size: 11px; font-weight: 600; fill: #64748b; }
    text.hrm-sub { font-size: 11px; font-weight: 700; fill: #ea580c; }
    text.dead { font-size: 11px; fill: #94a3b8; }
    @media (prefers-color-scheme: dark) {
      rect.key { fill: #1e293b; stroke: #334155; }
      rect.gap { fill: #0f172a; stroke: #334155; }
      rect.active { fill: #2e1065; stroke: #a78bfa; }
      text.title { fill: #f8fafc; }
      text.subtitle { fill: #94a3b8; }
      text.phys { fill: #94a3b8; }
      text.main { fill: #a78bfa; }
      text.sub { fill: #94a3b8; }
      text.hrm-sub { fill: #fb923c; }
      text.dead { fill: #64748b; }
    }
  </style>
  <text x="470" y="28" class="title">Symbols Layer</text>
  <text x="470" y="48" class="subtitle">Activated by Holding Left Mid Thumb (x)</text>
  <g transform="translate(20,70)">
    <rect width="60" height="60" rx="8" class="active"/>
    <text x="6" y="12" class="phys">`</text>
    <text x="30" y="36" class="main">^</text>
  </g>
  <g transform="translate(86,70)">
    <rect width="60" height="60" rx="8" class="active"/>
    <text x="6" y="12" class="phys">1</text>
    <text x="30" y="36" class="main">&lt;</text>
  </g>
  <g transform="translate(152,70)">
    <rect width="60" height="60" rx="8" class="active"/>
    <text x="6" y="12" class="phys">2</text>
    <text x="30" y="36" class="main">&gt;</text>
  </g>
  <g transform="translate(218,70)">
    <rect width="60" height="60" rx="8" class="active"/>
    <text x="6" y="12" class="phys">3</text>
    <text x="30" y="36" class="main">@</text>
  </g>
  <g transform="translate(284,70)">
    <rect width="60" height="60" rx="8" class="active"/>
    <text x="6" y="12" class="phys">4</text>
    <text x="30" y="36" class="main">%</text>
  </g>
  <g transform="translate(548,70)">
    <rect width="60" height="60" rx="8" class="active"/>
    <text x="6" y="12" class="phys">8</text>
    <text x="30" y="36" class="main">$</text>
  </g>
  <g transform="translate(614,70)">
    <rect width="60" height="60" rx="8" class="active"/>
    <text x="6" y="12" class="phys">9</text>
    <text x="30" y="36" class="main">&amp;</text>
  </g>
  <g transform="translate(680,70)">
    <rect width="60" height="60" rx="8" class="active"/>
    <text x="6" y="12" class="phys">0</text>
    <text x="30" y="36" class="main">*</text>
  </g>
  <g transform="translate(746,70)">
    <rect width="60" height="60" rx="8" class="active"/>
    <text x="6" y="12" class="phys">-</text>
    <text x="30" y="36" class="main">&#x27;</text>
  </g>
  <g transform="translate(812,70)">
    <rect width="60" height="60" rx="8" class="active"/>
    <text x="6" y="12" class="phys">=</text>
    <text x="30" y="36" class="main">`</text>
  </g>
  <g transform="translate(20,136)">
    <rect width="60" height="60" rx="8" class="active"/>
    <text x="6" y="12" class="phys">tab</text>
    <text x="30" y="28" class="main">{</text>
    <text x="30" y="46" class="hrm-sub">Shift</text>
  </g>
  <g transform="translate(86,136)">
    <rect width="60" height="60" rx="8" class="active"/>
    <text x="6" y="12" class="phys">q</text>
    <text x="30" y="28" class="main">(</text>
    <text x="30" y="46" class="hrm-sub">Alt</text>
  </g>
  <g transform="translate(152,136)">
    <rect width="60" height="60" rx="8" class="active"/>
    <text x="6" y="12" class="phys">w</text>
    <text x="30" y="28" class="main">)</text>
    <text x="30" y="46" class="hrm-sub">Super</text>
  </g>
  <g transform="translate(218,136)">
    <rect width="60" height="60" rx="8" class="active"/>
    <text x="6" y="12" class="phys">e</text>
    <text x="30" y="28" class="main">}</text>
    <text x="30" y="46" class="hrm-sub">Ctrl</text>
  </g>
  <g transform="translate(284,136)">
    <rect width="60" height="60" rx="8" class="active"/>
    <text x="6" y="12" class="phys">r</text>
    <text x="30" y="36" class="main">=</text>
  </g>
  <g transform="translate(548,136)">
    <rect width="60" height="60" rx="8" class="active"/>
    <text x="6" y="12" class="phys">i</text>
    <text x="30" y="36" class="main">\</text>
  </g>
  <g transform="translate(614,136)">
    <rect width="60" height="60" rx="8" class="active"/>
    <text x="6" y="12" class="phys">o</text>
    <text x="30" y="28" class="main">+</text>
    <text x="30" y="46" class="hrm-sub">Ctrl</text>
  </g>
  <g transform="translate(680,136)">
    <rect width="60" height="60" rx="8" class="active"/>
    <text x="6" y="12" class="phys">p</text>
    <text x="30" y="28" class="main">-</text>
    <text x="30" y="46" class="hrm-sub">Super</text>
  </g>
  <g transform="translate(746,136)">
    <rect width="60" height="60" rx="8" class="active"/>
    <text x="6" y="12" class="phys">[</text>
    <text x="30" y="28" class="main">_</text>
    <text x="30" y="46" class="hrm-sub">Alt</text>
  </g>
  <g transform="translate(812,136)">
    <rect width="60" height="60" rx="8" class="active"/>
    <text x="6" y="12" class="phys">]</text>
    <text x="30" y="28" class="main">&quot;</text>
    <text x="30" y="46" class="hrm-sub">Shift</text>
  </g>
  <g transform="translate(20,202)">
    <rect width="60" height="60" rx="8" class="active"/>
    <text x="6" y="12" class="phys">caps</text>
    <text x="30" y="36" class="main">~</text>
  </g>
  <g transform="translate(86,202)">
    <rect width="60" height="60" rx="8" class="active"/>
    <text x="6" y="12" class="phys">a</text>
    <text x="30" y="36" class="main">/</text>
  </g>
  <g transform="translate(152,202)">
    <rect width="60" height="60" rx="8" class="active"/>
    <text x="6" y="12" class="phys">s</text>
    <text x="30" y="36" class="main">?</text>
  </g>
  <g transform="translate(218,202)">
    <rect width="60" height="60" rx="8" class="active"/>
    <text x="6" y="12" class="phys">d</text>
    <text x="30" y="36" class="main">;</text>
  </g>
  <g transform="translate(284,202)">
    <rect width="60" height="60" rx="8" class="active"/>
    <text x="6" y="12" class="phys">f</text>
    <text x="30" y="36" class="main">#</text>
  </g>
  <g transform="translate(548,202)">
    <rect width="60" height="60" rx="8" class="active"/>
    <text x="6" y="12" class="phys">k</text>
    <text x="30" y="36" class="main">|</text>
  </g>
  <g transform="translate(614,202)">
    <rect width="60" height="60" rx="8" class="active"/>
    <text x="6" y="12" class="phys">l</text>
    <text x="30" y="36" class="main">!</text>
  </g>
  <g transform="translate(680,202)">
    <rect width="60" height="60" rx="8" class="active"/>
    <text x="6" y="12" class="phys">;</text>
    <text x="30" y="36" class="main">[</text>
  </g>
  <g transform="translate(746,202)">
    <rect width="60" height="60" rx="8" class="active"/>
    <text x="6" y="12" class="phys">&#x27;</text>
    <text x="30" y="36" class="main">]</text>
  </g>
  <g transform="translate(812,202)">
    <rect width="90" height="60" rx="8" class="active"/>
    <text x="6" y="12" class="phys">Enter</text>
    <text x="45" y="36" class="main">:</text>
  </g>
  <g transform="translate(152,268)">
    <rect width="60" height="60" rx="8" class="active"/>
    <text x="6" y="12" class="phys">x</text>
    <text x="30" y="36" class="main">·</text>
  </g>
  <g transform="translate(218,268)">
    <rect width="60" height="60" rx="8" class="active"/>
    <text x="6" y="12" class="phys">c</text>
    <text x="30" y="36" class="main">·</text>
  </g>
  <g transform="translate(548,268)">
    <rect width="60" height="60" rx="8" class="active"/>
    <text x="6" y="12" class="phys">,</text>
    <text x="30" y="36" class="main">·</text>
  </g>
  <g transform="translate(614,268)">
    <rect width="60" height="60" rx="8" class="active"/>
    <text x="6" y="12" class="phys">.</text>
    <text x="30" y="36" class="main">·</text>
  </g>
</svg>